Coordinates
version=1
nRows=16
nColumns=40
inDegrees=yes

Units are S.I. units (second, meters, Newtons, ...)
Angles are in degrees.

endheader
time	pelvis_tilt	pelvis_list	pelvis_rotation	pelvis_tx	pelvis_ty	pelvis_tz	hip_flexion_r	hip_adduction_r	hip_rotation_r	knee_angle_r	knee_angle_r_beta	ankle_angle_r	subtalar_angle_r	mtp_angle_r	hip_flexion_l	hip_adduction_l	hip_rotation_l	knee_angle_l	knee_angle_l_beta	ankle_angle_l	subtalar_angle_l	mtp_angle_l	lumbar_extension	lumbar_bending	lumbar_rotation	arm_flex_r	arm_add_r	arm_rot_r	elbow_flex_r	pro_sup_r	wrist_flex_r	wrist_dev_r	arm_flex_l	arm_add_l	arm_rot_l	elbow_flex_l	pro_sup_l	wrist_flex_l	wrist_dev_l
      0.55000000	      0.41299389	      3.95358561	     -4.64962669	     -0.66433463	      0.94281761	     -1.41776764	    -11.81535902	     -9.13764694	    -17.52599219	    -21.41171979	     -0.37370501	     10.38338010	      9.23557667	    -15.26581430	     20.21647623	      2.05385066	     17.64508620	    -13.16399756	     -0.22975510	     -3.31249155	      3.40446303	      3.49982077	     -3.79011603	     -6.69871954	     10.25152313	     10.28016606	    -14.13783789	    -12.16913063	     32.25704913	     89.95437384	      0.00000000	      0.00000000	    -17.74635435	      9.35442921	      6.49743945	     12.90569648	     89.95437384	      0.00000000	      0.00000000
      0.56000000	      0.73754476	      4.70119984	     -4.91302862	     -0.65289049	      0.94264360	     -1.42162946	    -12.16117558	    -10.85794514	    -18.33441357	    -22.76863870	     -0.39738771	      9.82077265	     11.07037309	    -15.74646933	     19.45606586	      1.10998327	     17.82140212	    -13.11239927	     -0.22885454	     -4.90824054	      2.43438051	      2.30926412	     -3.81470371	     -7.47675753	     10.32061160	     10.05068203	    -14.01066003	    -12.44504605	     32.57406845	     89.95437384	      0.00000000	      0.00000000	    -17.85506190	      9.43527340	      5.75051216	     12.85598725	     89.95437384	      0.00000000	      0.00000000
      0.57000000	      0.85543291	      4.86066215	     -4.95416671	     -0.64210449	      0.94245611	     -1.42539367	    -12.31533571	    -11.54631828	    -18.02688470	    -23.92221555	     -0.41752143	      8.97553395	     10.63161788	    -15.27937279	     19.34671920	      0.87769245	     17.25196464	    -14.11350117	     -0.24632706	     -5.93829159	      1.97484187	      2.32284314	     -3.75342906	     -7.60287785	     10.13476142	      9.94510506	    -13.91437472	    -12.59067276	     32.70910107	     89.95437384	      0.00000000	      0.00000000	    -17.82117878	      9.39818676	      5.55429181	     12.74561720	     89.95437384	      0.00000000	      0.00000000
      0.58000000	      1.08066144	      5.72277370	     -5.14090001	     -0.63043214	      0.94263321	     -1.42946002	    -12.29155606	    -13.47006131	    -18.92700425	    -25.75062182	     -0.44943314	      8.01417204	     11.76998757	    -15.11463244	     18.90320617	      0.02727948	     18.24097320	    -14.89308491	     -0.25993337	     -6.90540134	      0.55327314	      1.72112946	     -3.61615648	     -8.49632892	     10.16417420	      9.61542945	    -13.69204351	    -13.05227767	     32.80141093	     89.95437384	      0.00000000	      0.00000000	    -17.56639285	      9.45844246	      5.08033542	     12.18154142	     89.95437384	      0.00000000	      0.00000000
      0.59000000	      1.16944554	      6.01486782	     -5.08706919	     -0.61928008	      0.94280219	     -1.43342351	    -12.14921486	    -14.48742546	    -19.22744582	    -27.35694831	     -0.47746882	      6.26582668	     11.39314195	    -14.47526190	     18.90012456	     -0.32138267	     18.63682898	    -16.43577498	     -0.28685839	     -6.16169528	      1.08144843	      1.25945293	     -3.47111709	     -8.75059141	      9.89110869	      9.37978350	    -13.50290657	    -13.35450109	     32.81792039	     89.95437384	      0.00000000	      0.00000000	    -17.34304012	      9.47623452	      4.69500538	     11.87837564	     89.95437384	      0.00000000	      0.00000000
      0.60000000	      1.33328115	      6.14166310	     -4.95823164	     -0.60870198	      0.94337998	     -1.43721078	    -11.87385636	    -15.18147829	    -18.93714389	    -29.22313676	     -0.51003995	      4.63744260	     10.86139659	    -13.82929779	     18.66272087	     -0.68498436	     18.20089340	    -17.57870510	     -0.30680628	     -5.80950538	      1.08279507	      1.02315660	     -3.55417432	     -8.85673884	      9.52874997	      9.17091235	    -13.35784746	    -13.52259708	     32.91608048	     89.95437384	      0.00000000	      0.00000000	    -17.06222708	      9.52797341	      4.37966177	     11.84867183	     89.95437384	      0.00000000	      0.00000000
      0.61000000	      1.08984623	      7.45789183	     -5.04905819	     -0.59750198	      0.94339667	     -1.44184883	    -10.70769108	    -17.95159908	    -20.27472943	    -31.96625243	     -0.55791635	      2.51304481	     12.25773761	    -13.38185310	     18.36165710	     -2.65228194	     17.60852818	    -17.43435017	     -0.30428681	     -5.73166916	      1.93275550	      0.22396978	     -2.87246702	    -10.15817672	      9.65404273	      8.64748107	    -13.07926242	    -14.16063082	     32.80425154	     89.95437384	      0.00000000	      0.00000000	    -16.59734497	      9.79724350	      3.15414363	     11.41760655	     89.95437384	      0.00000000	      0.00000000
      0.62000000	      1.16172271	      8.16512619	     -4.98876301	     -0.58684820	      0.94414416	     -1.44617786	     -9.96614850	    -19.64621366	    -20.59976760	    -34.22573669	     -0.59735179	     -0.10003784	     12.25028184	    -12.64696597	     17.77023480	     -4.06039805	     16.53709362	    -17.48053158	     -0.30509283	     -5.15877288	      3.61760040	     -0.36529322	     -2.72054812	    -10.84056772	      9.38892462	      8.28207447	    -12.95092506	    -14.12045050	     32.75508307	     89.95437384	      0.00000000	      0.00000000	    -16.02254561	      9.91573627	      2.42828274	     11.06419824	     89.95437384	      0.00000000	      0.00000000
      0.63000000	      1.32759402	      8.54822935	     -4.84659851	     -0.57593942	      0.94523463	     -1.45002286	     -9.41354404	    -20.80600188	    -20.72734317	    -36.20511656	     -0.63189849	     -3.15755907	     11.70787083	    -11.82033833	     17.11173114	     -4.91526081	     16.05704806	    -17.86848795	     -0.31186395	     -4.35821378	      4.28419376	     -0.60299751	     -2.71047792	    -11.21060878	      9.07849044	      7.89240756	    -12.81167525	    -14.08786557	     32.62243568	     89.95437384	      0.00000000	      0.00000000	    -15.43443321	     10.06682886	      1.93413371	     10.87829761	     89.95437384	      0.00000000	      0.00000000
      0.64000000	      1.46963308	      8.97159459	     -4.77640219	     -0.56543692	      0.94634527	     -1.45381992	     -8.68101298	    -21.97173794	    -20.53448449	    -38.16101003	     -0.66603527	     -6.15125959	     11.14296613	    -11.05244273	     16.35592393	     -5.84864791	     15.57662448	    -17.93041433	     -0.31294477	     -3.68693925	      4.52975499	     -0.72148996	     -2.69505988	    -11.61668625	      8.78992898	      7.58138260	    -12.67147201	    -13.98476395	     32.39687912	     89.95437384	      0.00000000	      0.00000000	    -14.67600671	     10.20152492	      1.48373332	     10.52821093	     89.95437384	      0.00000000	      0.00000000
      0.65000000	      1.68813726	      8.89634448	     -4.53756176	     -0.55575537	      0.94756995	     -1.45710724	     -7.99670080	    -22.31816727	    -19.92943689	    -40.20414067	     -0.70169463	     -7.70542286	     10.64425786	    -10.57941462	     15.54127773	     -6.15437375	     15.21566438	    -18.09531524	     -0.31582283	     -3.23714258	      4.45099248	     -0.78517629	     -3.00836233	    -11.52891772	      8.16418390	      7.33698820	    -12.48095380	    -13.83445588	     32.35367226	     89.95437384	      0.00000000	      0.00000000	    -14.01273239	     10.31298860	      1.21605081	     10.74165315	     89.95437384	      0.00000000	      0.00000000
      0.66000000	      1.39366657	     10.24663139	     -4.76006166	     -0.54608087	      0.94793742	     -1.46129402	     -6.10005522	    -24.68650776	    -19.24464441	    -42.82577283	     -0.74745074	     -9.90402511	      9.53247387	     -9.91452387	     14.82598505	     -8.42169852	     13.77061897	    -16.87539228	     -0.29453116	     -2.85935364	      7.51268729	     -0.27483572	     -2.42008482	    -12.87060625	      8.36417810	      6.86518263	    -12.38765835	    -13.56954665	     32.04841434	     89.95437384	      0.00000000	      0.00000000	    -13.09482599	     10.59616413	      0.28595136	     10.57326660	     89.95437384	      0.00000000	      0.00000000
      0.67000000	      1.60689433	     10.09633094	     -4.53661278	     -0.53663850	      0.94926409	     -1.46443920	     -5.30615316	    -24.95160930	    -18.78466772	    -44.76354765	     -0.78127129	    -10.39908421	      8.80809850	     -9.69705210	     13.87991293	     -8.60132278	     13.51627037	    -16.84974034	     -0.29408345	     -2.32137736	      7.08484375	     -0.34598485	     -2.75058654	    -12.68274402	      7.82322669	      6.62928167	    -12.26308949	    -13.33564985	     31.82699579	     89.95437384	      0.00000000	      0.00000000	    -12.22908453	     10.72590830	      0.07290947	     10.75728072	     89.95437384	      0.00000000	      0.00000000
      0.68000000	      1.50317513	     10.82410971	     -4.79873410	     -0.52761871	      0.94984634	     -1.46751670	     -3.45427396	    -26.33295821	    -18.02457510	    -47.25727679	     -0.82479508	    -10.23619650	      5.47473347	     -9.52286286	     13.09714237	     -9.75641902	     13.22346352	    -16.11614485	     -0.28127979	     -1.64434812	      6.90656794	     -0.27955833	     -2.52597117	    -13.40247900	      7.80246626	      6.41766321	    -12.11510938	    -12.93537743	     31.42238069	     89.95437384	      0.00000000	      0.00000000	    -11.17766838	     10.88471918	     -0.15837147	     10.60709460	     89.95437384	      0.00000000	      0.00000000
      0.69000000	      1.15418130	     11.11663641	     -4.99259593	     -0.51902794	      0.95017551	     -1.47023616	     -1.24766330	    -27.07629516	    -17.32871309	    -49.60331287	     -0.86574113	    -10.03529774	      1.85952122	     -9.16773220	     12.73484517	    -10.34382564	     13.05755181	    -15.69526483	     -0.27393405	     -1.45852079	      7.56626472	      0.19154539	     -2.12303372	    -13.64493306	      7.78761135	      6.14859247	    -11.91441183	    -12.83067385	     31.07553245	     89.95437384	      0.00000000	      0.00000000	    -10.31197670	     11.08311237	     -0.21854826	     11.00471743	     89.95437384	      0.00000000	      0.00000000
      0.70000000	      0.95483151	     11.26751065	     -5.11682813	     -0.51055796	      0.95081933	     -1.47278502	      0.69553547	    -27.58038483	    -16.84517625	    -51.64782350	     -0.90142457	     -9.37378470	     -1.65189803	     -8.69943707	     12.15332264	    -10.77557994	     12.87777576	    -15.23452073	     -0.26589255	     -1.00631966	      7.61446604	      0.54095990	     -1.96726822	    -13.75452838	      7.63221955	      6.01558033	    -11.70591380	    -12.75392916	     30.56239535	     89.95437384	      0.00000000	      0.00000000	     -9.30048689	     11.22502372	     -0.02508515	     11.24546844	     89.95437384	      0.00000000	      0.00000000
